<!DOCTYPE svg PUBLIC "-//W3C//DTD SVG 20010904//EN" "http://www.w3.org/TR/2001/REC-SVG-20010904/DTD/svg10.dtd">
<svg version="1.0" xmlns="http://www.w3.org/2000/svg" width="28px" height="21px" viewBox="0 0 280 210" preserveAspectRatio="xMidYMid meet">
<g id="layer101" fill="#000000" stroke="none">
<path d="M0 105 l0 -105 140 0 140 0 0 105 0 105 -140 0 -140 0 0 -105z"/>
</g>
<g id="layer102" fill="#0f1e2d" stroke="none">
<path d="M0 40 l0 -40 140 0 140 0 0 40 0 40 -140 0 -140 0 0 -40z"/>
</g>
<g id="layer103" fill="#262626" stroke="none">
<path d="M0 170 l0 -40 140 0 140 0 0 40 0 40 -140 0 -140 0 0 -40z"/>
</g>
<g id="layer104" fill="#3f7fbe" stroke="none">
<path d="M0 35 l0 -35 140 0 140 0 0 35 0 35 -140 0 -140 0 0 -35z"/>
</g>
<g id="layer105" fill="#4c91d8" stroke="none">
<path d="M0 30 l0 -30 140 0 140 0 0 30 0 30 -140 0 -140 0 0 -30z"/>
</g>
<g id="layer106" fill="#4d9ce9" stroke="none">
<path d="M68 53 c39 -2 105 -2 145 0 39 1 7 3 -73 3 -80 0 -112 -2 -72 -3z"/>
</g>
<g id="layer107" fill="#f9f9f9" stroke="none">
<path d="M0 175 l0 -35 140 0 140 0 0 35 0 35 -140 0 -140 0 0 -35z"/>
</g>


</svg>