<svg version="1.0" xmlns="http://www.w3.org/2000/svg" width="140" height="65" viewBox="0 0 1400 650"><path d="M145 340c-16-26 18-40 91-40h73l3-82c2-66 6-83 18-83s16 20 21 100c3 55 4 103 2 108-6 11-201 8-208-3zm401-32c-9-12-16-32-16-43-1-55-84-165-125-165-8 0-15-7-15-15s7-15 16-15c12 0 15-6 10-25-7-29 0-31 34-9 80 53 129 121 150 206 10 40 9 48-6 67-23 26-29 26-48-1z" fill="#9467ae"/><path d="M39 454C11 420 0 380 0 311c0-74 21-149 47-168 45-34 73 4 45 59-8 17-17 53-20 80-5 50 14 138 29 138 5 0 9 5 9 11 0 7-10 9-24 5-20-5-25-2-28 15-3 21-3 21-19 3z" fill="#00c3f0"/><path d="M110 135c0-9-9-15-25-15-35 0-31-10 20-50C167 21 223 1 302 1c62-1 69 1 85 25 16 25 16 27-2 41-12 8-30 11-48 7-49-10-114 6-168 42-58 39-59 39-59 19z" fill="#fe7081"/><path d="M175 586c-74-36-117-80-109-111 8-32 43-34 70-4 37 41 95 63 166 64 71 0 76 3 56 24-11 10-10 15 5 25 9 7 17 16 17 20 0 3-35 6-77 6-62 0-88-5-128-24z" fill="#ffd14e"/><path d="M1150 630c-24-24-24-30-6-55 8-11 12-25 9-32s0-20 7-29c10-11 10-18 2-26-7-7-12-27-12-44 0-38 29-64 72-64 18 0 28-5 28-15 0-19 43-40 64-32 9 4 16 16 16 27 0 15-7 20-25 20-29 0-30 3-9 35 32 49-12 105-83 105-22 0-25 2-13 10 8 5 30 10 48 10 70 0 95 45 49 88-32 30-118 31-147 2zm104-16c9-3 16-12 16-20 0-10-13-14-45-14s-45 4-45 14c0 22 40 33 74 20zm1-164c0-20-6-26-28-28-18-2-29 2-33 12-11 28 4 48 33 44 22-2 28-8 28-28zM758 561c-29-26-33-35-33-81 0-44 4-55 28-76 62-53 152-15 145 60-3 31-4 31-65 34-35 2-63 7-63 11 0 19 33 33 75 33 52-1 63 22 19 38-43 17-72 11-106-19zm92-121c-12-22-49-27-68-8-21 21-13 28 33 28 43 0 45-1 35-20zm220 76c0-85-13-106-58-90-26 9-27 13-30 82s-4 72-28 72h-25l3-97c3-93 4-98 26-101 12-2 22 2 22 8 0 7 6 8 19 0 30-16 76-12 94 8 24 26 25 177 1 186-9 3-18 6-20 6s-4-33-4-74zm-680-66V320h64c83 0 116 23 116 81 0 51-33 86-89 95-40 6-41 8-41 45 0 35-3 39-25 39h-25V450zm118-12c17-17 15-65-4-72-9-3-27-6-40-6-22 0-24 4-24 45 0 43 1 45 28 45 15 0 33-5 40-12zm92 42c0-93 1-100 20-100 11 0 20 5 20 12 0 9 3 9 12 0 7-7 22-12 35-12 33 0 31 38-2 46-34 8-45 32-45 98 0 49-2 56-20 56-19 0-20-7-20-100zm750 0c0-93 1-100 20-100s20 7 20 100-1 100-20 100-20-7-20-100zm-3-136c-14-15-6-43 14-49 25-8 42 6 37 31-3 19-38 31-51 18z" fill="#fff"/></svg>