<!DOCTYPE svg PUBLIC "-//W3C//DTD SVG 20010904//EN" "http://www.w3.org/TR/2001/REC-SVG-20010904/DTD/svg10.dtd">
<svg version="1.0" xmlns="http://www.w3.org/2000/svg" width="140px" height="65px" viewBox="0 0 1400 650" preserveAspectRatio="xMidYMid meet">
<g id="layer101" fill="#9467ae" stroke="none">
<path d="M145 340 c-16 -26 18 -40 91 -40 l73 0 3 -82 c2 -66 6 -83 18 -83 12 0 16 20 21 100 3 55 4 103 2 108 -6 11 -201 8 -208 -3z"/>
<path d="M546 308 c-9 -12 -16 -32 -16 -43 -1 -55 -84 -165 -125 -165 -8 0 -15 -7 -15 -15 0 -8 7 -15 16 -15 12 0 15 -6 10 -25 -7 -29 0 -31 34 -9 80 53 129 121 150 206 10 40 9 48 -6 67 -23 26 -29 26 -48 -1z"/>
</g>
<g id="layer102" fill="#00c3f0" stroke="none">
<path d="M39 454 c-28 -34 -39 -74 -39 -143 0 -74 21 -149 47 -168 45 -34 73 4 45 59 -8 17 -17 53 -20 80 -5 50 14 138 29 138 5 0 9 5 9 11 0 7 -10 9 -24 5 -20 -5 -25 -2 -28 15 -3 21 -3 21 -19 3z"/>
</g>
<g id="layer103" fill="#fe7081" stroke="none">
<path d="M110 135 c0 -9 -9 -15 -25 -15 -35 0 -31 -10 20 -50 62 -49 118 -69 197 -69 62 -1 69 1 85 25 16 25 16 27 -2 41 -12 8 -30 11 -48 7 -49 -10 -114 6 -168 42 -58 39 -59 39 -59 19z"/>
</g>
<g id="layer104" fill="#ffd14e" stroke="none">
<path d="M175 586 c-74 -36 -117 -80 -109 -111 8 -32 43 -34 70 -4 37 41 95 63 166 64 71 0 76 3 56 24 -11 10 -10 15 5 25 9 7 17 16 17 20 0 3 -35 6 -77 6 -62 0 -88 -5 -128 -24z"/>
</g>
<g id="layer105" fill="#ffffff" stroke="none">
<path d="M1150 630 c-24 -24 -24 -30 -6 -55 8 -11 12 -25 9 -32 -3 -7 0 -20 7 -29 10 -11 10 -18 2 -26 -7 -7 -12 -27 -12 -44 0 -38 29 -64 72 -64 18 0 28 -5 28 -15 0 -19 43 -40 64 -32 9 4 16 16 16 27 0 15 -7 20 -25 20 -29 0 -30 3 -9 35 32 49 -12 105 -83 105 -22 0 -25 2 -13 10 8 5 30 10 48 10 70 0 95 45 49 88 -32 30 -118 31 -147 2z m104 -16 c9 -3 16 -12 16 -20 0 -10 -13 -14 -45 -14 -32 0 -45 4 -45 14 0 22 40 33 74 20z m1 -164 c0 -20 -6 -26 -28 -28 -18 -2 -29 2 -33 12 -11 28 4 48 33 44 22 -2 28 -8 28 -28z"/>
<path d="M758 561 c-29 -26 -33 -35 -33 -81 0 -44 4 -55 28 -76 62 -53 152 -15 145 60 -3 31 -4 31 -65 34 -35 2 -63 7 -63 11 0 19 33 33 75 33 52 -1 63 22 19 38 -43 17 -72 11 -106 -19z m92 -121 c-12 -22 -49 -27 -68 -8 -21 21 -13 28 33 28 43 0 45 -1 35 -20z"/>
<path d="M1070 516 c0 -85 -13 -106 -58 -90 -26 9 -27 13 -30 82 -3 69 -4 72 -28 72 l-25 0 3 -97 c3 -93 4 -98 26 -101 12 -2 22 2 22 8 0 7 6 8 19 0 30 -16 76 -12 94 8 24 26 25 177 1 186 -9 3 -18 6 -20 6 -2 0 -4 -33 -4 -74z"/>
<path d="M390 450 l0 -130 64 0 c83 0 116 23 116 81 0 51 -33 86 -89 95 -40 6 -41 8 -41 45 0 35 -3 39 -25 39 l-25 0 0 -130z m118 -12 c17 -17 15 -65 -4 -72 -9 -3 -27 -6 -40 -6 -22 0 -24 4 -24 45 0 43 1 45 28 45 15 0 33 -5 40 -12z"/>
<path d="M600 480 c0 -93 1 -100 20 -100 11 0 20 5 20 12 0 9 3 9 12 0 7 -7 22 -12 35 -12 33 0 31 38 -2 46 -34 8 -45 32 -45 98 0 49 -2 56 -20 56 -19 0 -20 -7 -20 -100z"/>
<path d="M1350 480 c0 -93 1 -100 20 -100 19 0 20 7 20 100 0 93 -1 100 -20 100 -19 0 -20 -7 -20 -100z"/>
<path d="M1347 344 c-14 -15 -6 -43 14 -49 25 -8 42 6 37 31 -3 19 -38 31 -51 18z"/>
</g>


</svg>