<!DOCTYPE svg PUBLIC "-//W3C//DTD SVG 20010904//EN" "http://www.w3.org/TR/2001/REC-SVG-20010904/DTD/svg10.dtd">
<svg version="1.0" xmlns="http://www.w3.org/2000/svg" width="302px" height="302px" viewBox="0 0 3020 3020" preserveAspectRatio="xMidYMid meet">
<g id="layer101" fill="#020607" stroke="none">
<path d="M310 1510 l0 -1200 1200 0 1200 0 0 1200 0 1200 -1200 0 -1200 0 0 -1200z"/>
</g>
<g id="layer102" fill="#0e3036" stroke="none">
<path d="M310 1510 l0 -1200 1200 0 1200 0 0 1200 0 1200 -1200 0 -1200 0 0 -1200z m934 500 c22 0 63 -48 70 -81 14 -71 -50 -137 -121 -126 -41 7 -59 20 -80 60 -35 69 35 170 105 151 8 -2 19 -4 26 -4z m192 -309 c-57 -57 -69 -87 -40 -98 10 -4 30 8 55 33 l39 38 0 -171 c0 -127 3 -173 13 -181 28 -24 38 3 40 106 1 56 3 102 5 102 2 0 10 -7 19 -15 14 -14 17 -14 34 1 17 15 19 15 35 -1 15 -15 19 -15 32 -1 11 11 19 12 32 4 10 -6 25 -8 34 -5 14 6 16 30 18 184 l2 178 4 -165 c1 -91 0 -175 -3 -186 -6 -26 -31 -37 -53 -25 -10 6 -24 6 -35 -1 -12 -6 -23 -6 -32 2 -9 7 -20 8 -32 2 -10 -5 -24 -7 -30 -5 -10 4 -13 -17 -13 -80 0 -86 -12 -117 -44 -117 -31 0 -36 25 -36 184 l0 160 -28 -27 c-33 -32 -67 -35 -81 -8 -12 22 8 52 72 109 34 32 37 38 39 96 l2 61 3 -59 4 -59 -55 -56z m-195 -641 c27 -15 26 -75 -2 -90 -52 -28 -106 28 -74 76 17 26 44 30 76 14z m607 -62 c17 -17 15 -64 -4 -82 -45 -45 -114 17 -79 70 17 26 62 33 83 12z"/>
<path d="M1153 1985 c-28 -20 -46 -75 -34 -106 34 -89 167 -82 184 9 7 34 -15 87 -41 101 -29 16 -84 14 -109 -4z m95 -37 c17 -17 15 -64 -4 -82 -45 -45 -114 17 -79 70 17 26 62 33 83 12z"/>
<path d="M1182 1938 c-34 -34 6 -90 48 -68 35 19 20 80 -20 80 -9 0 -21 -5 -28 -12z"/>
<path d="M1180 1046 c-28 -35 11 -93 48 -70 35 22 22 84 -18 84 -10 0 -23 -7 -30 -14z"/>
<path d="M1782 988 c-34 -34 6 -90 48 -68 35 19 20 80 -20 80 -9 0 -21 -5 -28 -12z"/>
</g>
<g id="layer103" fill="#16515b" stroke="none">
<path d="M310 1510 l0 -1200 1200 0 1200 0 0 1200 0 1200 -1200 0 -1200 0 0 -1200z m945 496 c105 -44 69 -206 -45 -206 -112 0 -150 161 -47 205 41 18 50 18 92 1z m235 -193 c0 -56 -2 -60 -56 -121 -34 -38 -54 -68 -50 -77 9 -24 30 -17 67 21 l34 35 5 -173 c5 -170 5 -173 28 -176 22 -3 22 -2 22 102 0 104 4 118 28 94 10 -10 17 -10 34 1 16 10 23 10 26 2 5 -14 39 -14 48 0 4 8 9 8 17 0 18 -18 45 -12 50 12 2 12 5 92 6 177 1 85 4 157 7 159 2 3 3 -78 2 -179 -3 -161 -5 -184 -20 -194 -13 -8 -23 -8 -38 1 -11 7 -21 9 -25 3 -3 -5 -30 -8 -60 -6 l-55 3 0 -79 c0 -86 -11 -118 -39 -118 -35 0 -40 23 -42 178 0 84 -3 152 -6 152 -3 0 -19 -11 -35 -25 -27 -23 -33 -24 -52 -12 -36 24 -30 44 33 110 59 61 61 66 61 115 0 29 2 52 5 52 3 0 5 -26 5 -57z m427 -749 c-9 -9 -28 6 -21 18 4 6 10 6 17 -1 6 -6 8 -13 4 -17z m-660 -20 c15 -24 15 -29 2 -53 -11 -20 -22 -26 -49 -26 -27 0 -38 6 -49 26 -13 24 -13 29 2 53 12 18 26 26 47 26 21 0 35 -8 47 -26z m444 3 c-13 -13 -26 -3 -16 12 3 6 11 8 17 5 6 -4 6 -10 -1 -17z m144 -52 c14 -13 25 -31 25 -40 0 -21 -36 -55 -60 -55 -40 0 -73 55 -52 86 8 12 43 33 55 34 4 0 19 -11 32 -25z m-175 -50 c0 -8 -4 -15 -10 -15 -5 0 -10 7 -10 15 0 8 5 15 10 15 6 0 10 -7 10 -15z"/>
<path d="M1146 1975 c-19 -18 -26 -34 -26 -62 0 -72 53 -114 116 -93 43 14 64 44 64 91 0 79 -95 119 -154 64z m109 -38 c8 -12 15 -27 15 -34 0 -20 -38 -53 -60 -53 -24 0 -60 34 -60 55 0 9 11 27 24 40 27 27 58 24 81 -8z"/>
<path d="M1180 1936 c-6 -8 -10 -25 -8 -38 2 -19 9 -23 38 -23 29 0 36 4 38 23 4 28 -14 52 -38 52 -10 0 -23 -7 -30 -14z"/>
<path d="M1188 1049 c-44 -25 -3 -93 42 -69 26 14 26 56 1 70 -23 12 -22 12 -43 -1z"/>
<path d="M1781 986 c-7 -8 -11 -25 -9 -38 2 -18 9 -23 32 -23 36 0 56 27 40 53 -14 22 -48 27 -63 8z"/>
</g>
<g id="layer104" fill="#526565" stroke="none">
<path d="M310 1510 l0 -1200 1200 0 1200 0 0 1200 0 1200 -1200 0 -1200 0 0 -1200z m791 487 c-13 -13 -26 -3 -16 12 3 6 11 8 17 5 6 -4 6 -10 -1 -17z m154 9 c105 -44 69 -206 -45 -206 -112 0 -150 161 -47 205 41 18 50 18 92 1z m235 -195 c0 -59 -1 -61 -55 -119 -59 -64 -64 -76 -39 -86 11 -4 29 7 55 32 l39 39 2 -176 c3 -168 4 -176 23 -176 19 0 20 8 23 103 1 56 6 102 10 102 5 0 14 -6 20 -12 10 -10 17 -10 32 0 16 10 24 10 41 0 17 -10 23 -10 26 0 6 15 30 16 35 0 2 -6 12 -9 21 -5 14 5 17 21 18 89 1 46 5 126 9 178 6 86 7 77 8 -87 2 -136 -1 -184 -10 -190 -7 -4 -40 -9 -73 -9 -33 -1 -72 -2 -87 -3 l-28 -1 0 -83 c0 -88 -8 -107 -47 -107 -32 0 -44 31 -42 108 1 37 1 102 0 145 l-1 79 -31 -27 c-28 -23 -34 -24 -53 -12 -36 24 -30 44 33 110 59 61 61 66 61 115 0 29 2 52 5 52 3 0 5 -27 5 -59z m320 -701 c0 -5 -7 -10 -15 -10 -8 0 -15 5 -15 10 0 6 7 10 15 10 8 0 15 -4 15 -10z m60 -10 c0 -5 -7 -10 -15 -10 -8 0 -15 5 -15 10 0 6 7 10 15 10 8 0 15 -4 15 -10z m48 -29 c3 -8 -1 -12 -9 -9 -7 2 -15 10 -17 17 -3 8 1 12 9 9 7 -2 15 -10 17 -17z m-666 -18 c22 -20 23 -51 1 -75 -33 -37 -103 -11 -103 38 0 49 64 72 102 37z m449 -6 c-13 -13 -26 -3 -16 12 3 6 11 8 17 5 6 -4 6 -10 -1 -17z m149 -47 c11 -11 20 -29 20 -40 0 -25 -34 -60 -58 -60 -29 0 -62 29 -62 56 0 29 32 64 60 64 11 0 29 -9 40 -20z m120 -25 c0 -8 -4 -15 -10 -15 -5 0 -10 7 -10 15 0 8 5 15 10 15 6 0 10 -7 10 -15z m-300 -30 c0 -8 -4 -15 -10 -15 -5 0 -10 7 -10 15 0 8 5 15 10 15 6 0 10 -7 10 -15z"/>
<path d="M1146 1974 c-47 -48 -32 -124 30 -150 93 -39 169 79 96 149 -38 37 -89 37 -126 1z m99 -29 c14 -13 25 -31 25 -40 0 -21 -36 -55 -60 -55 -25 0 -60 34 -60 59 0 19 43 61 62 61 5 0 20 -11 33 -25z"/>
<path d="M1180 1936 c-6 -8 -10 -25 -8 -38 2 -18 10 -24 35 -26 28 -3 33 1 39 23 11 45 -37 75 -66 41z"/>
</g>
<g id="layer105" fill="#158a9d" stroke="none">
<path d="M310 1510 l0 -1200 1200 0 1200 0 0 1200 0 1200 -1200 0 -1200 0 0 -1200z m900 550 c0 -5 -7 -10 -15 -10 -8 0 -15 5 -15 10 0 6 7 10 15 10 8 0 15 -4 15 -10z m60 -10 c0 -5 -7 -10 -15 -10 -8 0 -15 5 -15 10 0 6 7 10 15 10 8 0 15 -4 15 -10z m48 -29 c3 -8 -1 -12 -9 -9 -7 2 -15 10 -17 17 -3 8 1 12 9 9 7 -2 15 -10 17 -17z m-217 -24 c-13 -13 -26 -3 -16 12 3 6 11 8 17 5 6 -4 6 -10 -1 -17z m159 8 c35 -18 60 -62 60 -106 0 -22 -10 -41 -34 -65 -28 -28 -42 -34 -76 -34 -80 0 -137 92 -99 161 14 26 68 59 97 59 13 0 36 -7 52 -15z m110 -80 c0 -8 -4 -15 -10 -15 -5 0 -10 7 -10 15 0 8 5 15 10 15 6 0 10 -7 10 -15z m-300 -30 c0 -8 -4 -15 -10 -15 -5 0 -10 7 -10 15 0 8 5 15 10 15 6 0 10 -7 10 -15z m420 -88 l0 -63 -55 -54 c-58 -57 -66 -74 -39 -84 11 -4 29 7 55 32 l39 39 2 -176 c3 -168 4 -176 23 -176 19 0 20 8 23 103 1 56 6 102 10 102 5 0 14 -6 20 -12 10 -10 17 -10 32 0 16 10 24 10 41 0 17 -10 23 -10 26 0 6 15 30 16 35 0 2 -6 12 -9 21 -5 15 6 17 26 17 182 0 110 4 175 10 175 16 0 13 -357 -2 -367 -7 -4 -40 -9 -73 -9 -33 -1 -72 -2 -87 -3 l-28 -1 0 -83 c0 -51 -5 -88 -12 -95 -18 -18 -56 -14 -68 7 -5 11 -10 84 -10 166 l0 147 -31 -27 c-28 -23 -34 -24 -53 -12 -35 24 -30 44 28 105 54 57 56 60 56 115 0 32 5 57 10 57 6 0 10 -28 10 -63z m-159 0 c-13 -13 -26 -3 -16 12 3 6 11 8 17 5 6 -4 6 -10 -1 -17z m-154 -53 c-9 -9 -28 6 -21 18 4 6 10 6 17 -1 6 -6 8 -13 4 -17z m63 6 c0 -5 -7 -10 -15 -10 -8 0 -15 5 -15 10 0 6 7 10 15 10 8 0 15 -4 15 -10z m570 -650 c0 -5 -7 -10 -15 -10 -8 0 -15 5 -15 10 0 6 7 10 15 10 8 0 15 -4 15 -10z m60 -10 c0 -5 -7 -10 -15 -10 -8 0 -15 5 -15 10 0 6 7 10 15 10 8 0 15 -4 15 -10z m48 -29 c3 -8 -1 -12 -9 -9 -7 2 -15 10 -17 17 -3 8 1 12 9 9 7 -2 15 -10 17 -17z m-666 -18 c22 -20 23 -51 1 -75 -33 -37 -103 -11 -103 38 0 49 64 72 102 37z m449 -6 c-13 -13 -26 -3 -16 12 3 6 11 8 17 5 6 -4 6 -10 -1 -17z m149 -47 c24 -24 25 -48 4 -78 -29 -42 -104 -18 -104 35 0 28 33 63 60 63 11 0 29 -9 40 -20z m120 -25 c0 -8 -4 -15 -10 -15 -5 0 -10 7 -10 15 0 8 5 15 10 15 6 0 10 -7 10 -15z m-300 -30 c0 -8 -4 -15 -10 -15 -5 0 -10 7 -10 15 0 8 5 15 10 15 6 0 10 -7 10 -15z m261 -88 c-13 -13 -26 -3 -16 12 3 6 11 8 17 5 6 -4 6 -10 -1 -17z m-154 -53 c-9 -9 -28 6 -21 18 4 6 10 6 17 -1 6 -6 8 -13 4 -17z m63 6 c0 -5 -7 -10 -15 -10 -8 0 -15 5 -15 10 0 6 7 10 15 10 8 0 15 -4 15 -10z"/>
<path d="M1184 1045 c-12 -8 -15 -19 -10 -38 5 -21 12 -27 35 -27 31 0 45 20 36 50 -7 23 -40 31 -61 15z"/>
<path d="M1788 989 c-22 -12 -23 -42 -3 -59 32 -26 81 13 59 48 -14 21 -33 25 -56 11z"/>
</g>
<g id="layer106" fill="#6f9194" stroke="none">
<path d="M310 1510 l0 -1200 1200 0 1200 0 0 1200 0 1200 -1200 0 -1200 0 0 -1200z m900 550 c0 -5 -7 -10 -15 -10 -8 0 -15 5 -15 10 0 6 7 10 15 10 8 0 15 -4 15 -10z m60 -10 c0 -5 -7 -10 -15 -10 -8 0 -15 5 -15 10 0 6 7 10 15 10 8 0 15 -4 15 -10z m48 -29 c3 -8 -1 -12 -9 -9 -7 2 -15 10 -17 17 -3 8 1 12 9 9 7 -2 15 -10 17 -17z m-217 -24 c-13 -13 -26 -3 -16 12 3 6 11 8 17 5 6 -4 6 -10 -1 -17z m159 8 c35 -18 60 -62 60 -106 0 -22 -10 -41 -34 -65 -28 -28 -42 -34 -76 -34 -80 0 -137 92 -99 161 14 26 68 59 97 59 13 0 36 -7 52 -15z m110 -80 c0 -8 -4 -15 -10 -15 -5 0 -10 7 -10 15 0 8 5 15 10 15 6 0 10 -7 10 -15z m-300 -30 c0 -8 -4 -15 -10 -15 -5 0 -10 7 -10 15 0 8 5 15 10 15 6 0 10 -7 10 -15z m420 -87 c0 -61 0 -62 -56 -120 -51 -54 -61 -78 -30 -78 6 0 27 16 46 35 19 19 38 35 42 35 4 0 7 -79 7 -175 -1 -97 1 -178 4 -182 4 -3 13 -3 22 0 12 5 15 26 15 112 0 65 4 105 10 105 6 0 13 -7 16 -15 8 -20 24 -19 40 3 12 16 14 16 28 -3 14 -19 16 -19 32 -3 16 16 19 16 35 2 34 -31 39 -8 39 172 0 96 4 174 9 174 14 0 26 -327 13 -355 -10 -22 -17 -24 -79 -23 -37 0 -80 0 -95 -1 l-28 -1 0 -79 c0 -98 -5 -111 -39 -111 -47 0 -51 13 -51 172 l0 149 -30 -22 c-25 -19 -33 -21 -55 -11 -41 19 -32 51 30 112 54 53 55 55 55 112 0 32 4 58 10 58 6 0 10 -27 10 -62z m-159 -1 c-13 -13 -26 -3 -16 12 3 6 11 8 17 5 6 -4 6 -10 -1 -17z m-154 -53 c-9 -9 -28 6 -21 18 4 6 10 6 17 -1 6 -6 8 -13 4 -17z m63 6 c0 -5 -7 -10 -15 -10 -8 0 -15 5 -15 10 0 6 7 10 15 10 8 0 15 -4 15 -10z m570 -655 c0 -8 -7 -15 -15 -15 -8 0 -15 7 -15 15 0 8 7 15 15 15 8 0 15 -7 15 -15z m58 -3 c2 -7 -3 -12 -12 -12 -9 0 -16 7 -16 16 0 17 22 14 28 -4z m-118 -22 c-9 -6 -19 -5 -25 1 -6 6 -5 13 5 19 9 6 19 5 25 -1 6 -6 5 -13 -5 -19z m168 -9 c3 -8 -1 -12 -9 -9 -7 2 -15 10 -17 17 -3 8 1 12 9 9 7 -2 15 -10 17 -17z m-670 -7 c28 -19 29 -67 2 -94 -24 -24 -48 -25 -78 -4 -45 31 -18 114 38 114 9 0 26 -7 38 -16z m462 -3 c0 -12 -20 -25 -27 -18 -7 7 6 27 18 27 5 0 9 -4 9 -9z m243 -25 c6 -15 -1 -26 -15 -26 -4 0 -8 9 -8 20 0 23 15 27 23 6z m-273 -30 c0 -16 -18 -31 -27 -22 -8 8 5 36 17 36 5 0 10 -6 10 -14z m172 -3 c22 -20 24 -66 2 -87 -8 -9 -28 -16 -44 -16 -36 0 -60 23 -60 57 0 55 62 83 102 46z m118 -33 c0 -11 -4 -20 -10 -20 -5 0 -10 9 -10 20 0 11 5 20 10 20 6 0 10 -9 10 -20z m-300 -24 c0 -8 -4 -18 -10 -21 -5 -3 -10 3 -10 14 0 12 5 21 10 21 6 0 10 -6 10 -14z m298 -28 c-6 -18 -28 -21 -28 -4 0 9 7 16 16 16 9 0 14 -5 12 -12z m-37 -61 c-13 -13 -26 -3 -16 12 3 6 11 8 17 5 6 -4 6 -10 -1 -17z m-154 -53 c-9 -9 -28 6 -21 18 4 6 10 6 17 -1 6 -6 8 -13 4 -17z m63 6 c0 -5 -7 -10 -15 -10 -8 0 -15 5 -15 10 0 6 7 10 15 10 8 0 15 -4 15 -10z"/>
<path d="M1149 1971 c-60 -61 -24 -151 61 -151 52 0 90 36 90 87 0 46 -46 93 -90 93 -22 0 -41 -9 -61 -29z m101 -21 c24 -24 25 -48 4 -78 -31 -44 -104 -16 -104 40 0 24 35 58 60 58 11 0 29 -9 40 -20z"/>
<path d="M1180 1935 c-26 -32 13 -81 48 -59 34 22 22 74 -18 74 -10 0 -23 -7 -30 -15z"/>
</g>
<g id="layer107" fill="#1ebfda" stroke="none">
<path d="M127 3013 c51 -2 135 -2 185 0 51 1 10 3 -92 3 -102 0 -143 -2 -93 -3z"/>
<path d="M2712 3013 c48 -2 129 -2 180 0 51 1 12 3 -87 3 -99 0 -141 -2 -93 -3z"/>
<path d="M4 2805 c0 -99 2 -138 3 -87 2 51 2 132 0 180 -1 48 -3 6 -3 -93z"/>
<path d="M3014 2805 c0 -99 2 -138 3 -87 2 51 2 132 0 180 -1 48 -3 6 -3 -93z"/>
<path d="M310 1510 l0 -1200 1200 0 1200 0 0 1200 0 1200 -1200 0 -1200 0 0 -1200z m900 550 c0 -5 -7 -10 -15 -10 -8 0 -15 5 -15 10 0 6 7 10 15 10 8 0 15 -4 15 -10z m60 -10 c0 -5 -7 -10 -15 -10 -8 0 -15 5 -15 10 0 6 7 10 15 10 8 0 15 -4 15 -10z m48 -29 c3 -8 -1 -12 -9 -9 -7 2 -15 10 -17 17 -3 8 1 12 9 9 7 -2 15 -10 17 -17z m-217 -24 c-13 -13 -26 -3 -16 12 3 6 11 8 17 5 6 -4 6 -10 -1 -17z m192 -17 c63 -70 13 -180 -83 -180 -66 0 -110 45 -110 113 0 37 30 83 64 98 40 17 99 3 129 -31z m58 -3 c-1 -12 -15 -9 -19 4 -3 6 1 10 8 8 6 -3 11 -8 11 -12z m-271 -28 c0 -5 -7 -9 -15 -9 -9 0 -12 6 -9 15 6 15 24 11 24 -6z m290 -24 c0 -8 -4 -15 -10 -15 -5 0 -10 7 -10 15 0 8 5 15 10 15 6 0 10 -7 10 -15z m-300 -30 c0 -8 -4 -15 -10 -15 -5 0 -10 7 -10 15 0 8 5 15 10 15 6 0 10 -7 10 -15z m290 -30 c0 -8 -4 -15 -10 -15 -5 0 -10 7 -10 15 0 8 5 15 10 15 6 0 10 -7 10 -15z m130 -57 c0 -61 0 -62 -56 -120 -51 -54 -61 -78 -30 -78 6 0 27 16 46 35 19 19 38 35 42 35 4 0 7 -79 7 -176 0 -96 2 -178 5 -181 3 -3 12 -3 21 0 12 5 15 26 15 112 0 65 4 105 10 105 6 0 13 -7 16 -15 8 -20 24 -19 40 3 12 16 14 16 28 -3 14 -19 16 -19 32 -3 16 16 19 16 35 2 34 -31 39 -8 39 172 0 96 4 174 9 174 14 0 26 -327 13 -355 -10 -22 -17 -24 -79 -23 -37 0 -80 0 -95 -1 l-28 -1 0 -79 c0 -98 -5 -111 -39 -111 -47 0 -51 13 -51 172 l0 149 -30 -22 c-25 -19 -33 -21 -55 -11 -41 19 -32 51 30 112 54 53 55 55 55 112 0 32 4 58 10 58 6 0 10 -27 10 -62z m-402 24 c6 -18 -15 -14 -22 4 -4 10 -1 14 6 12 6 -2 14 -10 16 -16z m243 -25 c-13 -13 -26 -3 -16 12 3 6 11 8 17 5 6 -4 6 -10 -1 -17z m-203 -16 c3 -8 -1 -12 -9 -9 -7 2 -15 10 -17 17 -3 8 1 12 9 9 7 -2 15 -10 17 -17z m166 -10 c3 -5 -1 -11 -9 -15 -15 -6 -29 7 -18 18 9 9 21 8 27 -3z m-116 -20 c3 -8 -1 -12 -9 -9 -7 2 -15 10 -17 17 -3 8 1 12 9 9 7 -2 15 -10 17 -17z m62 -1 c0 -5 -7 -10 -15 -10 -8 0 -15 5 -15 10 0 6 7 10 15 10 8 0 15 -4 15 -10z m570 -655 c0 -8 -7 -15 -15 -15 -8 0 -15 7 -15 15 0 8 7 15 15 15 8 0 15 -7 15 -15z m58 -3 c2 -7 -3 -12 -12 -12 -9 0 -16 7 -16 16 0 17 22 14 28 -4z m-118 -22 c-9 -6 -19 -5 -25 1 -6 6 -5 13 5 19 9 6 19 5 25 -1 6 -6 5 -13 -5 -19z m168 -9 c3 -8 -1 -12 -9 -9 -7 2 -15 10 -17 17 -3 8 1 12 9 9 7 -2 15 -10 17 -17z m-670 -7 c28 -19 29 -67 2 -94 -24 -24 -48 -25 -78 -4 -45 31 -18 114 38 114 9 0 26 -7 38 -16z m462 -3 c0 -12 -20 -25 -27 -18 -7 7 6 27 18 27 5 0 9 -4 9 -9z m243 -25 c6 -15 -1 -26 -15 -26 -4 0 -8 9 -8 20 0 23 15 27 23 6z m-273 -30 c0 -16 -18 -31 -27 -22 -8 8 5 36 17 36 5 0 10 -6 10 -14z m172 -3 c22 -20 24 -66 2 -87 -8 -9 -28 -16 -44 -16 -36 0 -60 23 -60 57 0 55 62 83 102 46z m118 -33 c0 -11 -4 -20 -10 -20 -5 0 -10 9 -10 20 0 11 5 20 10 20 6 0 10 -9 10 -20z m-300 -24 c0 -8 -4 -18 -10 -21 -5 -3 -10 3 -10 14 0 12 5 21 10 21 6 0 10 -6 10 -14z m298 -28 c-6 -18 -28 -21 -28 -4 0 9 7 16 16 16 9 0 14 -5 12 -12z m-280 -36 c6 -18 -15 -14 -22 4 -4 10 -1 14 6 12 6 -2 14 -10 16 -16z m243 -25 c-13 -13 -26 -3 -16 12 3 6 11 8 17 5 6 -4 6 -10 -1 -17z m-203 -16 c3 -8 -1 -12 -9 -9 -7 2 -15 10 -17 17 -3 8 1 12 9 9 7 -2 15 -10 17 -17z m161 -22 c-7 -4 -17 -5 -22 -2 -5 3 -3 9 4 14 7 4 17 5 22 2 5 -3 3 -9 -4 -14z m-111 -8 c3 -8 -1 -12 -9 -9 -7 2 -15 10 -17 17 -3 8 1 12 9 9 7 -2 15 -10 17 -17z m62 -1 c0 -5 -7 -10 -15 -10 -8 0 -15 5 -15 10 0 6 7 10 15 10 8 0 15 -4 15 -10z"/>
<path d="M1179 1034 c-16 -20 -1 -48 29 -52 27 -4 49 33 31 54 -15 19 -43 18 -60 -2z"/>
<path d="M1786 984 c-19 -18 -19 -20 -6 -45 14 -25 46 -24 60 1 12 23 7 35 -20 50 -14 7 -23 6 -34 -6z"/>
<path d="M4 220 c0 -102 2 -143 3 -92 2 50 2 134 0 185 -1 50 -3 9 -3 -93z"/>
<path d="M3014 220 c0 -102 2 -143 3 -92 2 50 2 134 0 185 -1 50 -3 9 -3 -93z"/>
<path d="M127 3 c51 -2 135 -2 185 0 51 1 10 3 -92 3 -102 0 -143 -2 -93 -3z"/>
<path d="M2712 3 c48 -2 129 -2 180 0 51 1 12 3 -87 3 -99 0 -141 -2 -93 -3z"/>
</g>
<g id="layer108" fill="#bbc6c6" stroke="none">
<path d="M310 1510 l0 -1200 1200 0 1200 0 0 1200 0 1200 -1200 0 -1200 0 0 -1200z m900 550 c0 -5 -7 -10 -15 -10 -8 0 -15 5 -15 10 0 6 7 10 15 10 8 0 15 -4 15 -10z m60 -10 c0 -5 -7 -10 -15 -10 -8 0 -15 5 -15 10 0 6 7 10 15 10 8 0 15 -4 15 -10z m48 -29 c3 -8 -1 -12 -9 -9 -7 2 -15 10 -17 17 -3 8 1 12 9 9 7 -2 15 -10 17 -17z m-217 -24 c-13 -13 -26 -3 -16 12 3 6 11 8 17 5 6 -4 6 -10 -1 -17z m192 -17 c63 -70 13 -180 -83 -180 -66 0 -110 45 -110 113 0 37 30 83 64 98 40 17 99 3 129 -31z m58 -3 c-1 -12 -15 -9 -19 4 -3 6 1 10 8 8 6 -3 11 -8 11 -12z m-271 -28 c0 -5 -7 -9 -15 -9 -9 0 -12 6 -9 15 6 15 24 11 24 -6z m290 -24 c0 -8 -4 -15 -10 -15 -5 0 -10 7 -10 15 0 8 5 15 10 15 6 0 10 -7 10 -15z m-300 -30 c0 -8 -4 -15 -10 -15 -5 0 -10 7 -10 15 0 8 5 15 10 15 6 0 10 -7 10 -15z m290 -30 c0 -8 -4 -15 -10 -15 -5 0 -10 7 -10 15 0 8 5 15 10 15 6 0 10 -7 10 -15z m130 -57 c0 -43 -5 -67 -17 -80 -16 -17 -11 -18 125 -18 l142 0 0 80 c0 47 4 80 10 80 6 0 10 -33 10 -80 l0 -80 175 0 175 0 0 -400 0 -400 -45 0 -45 0 0 345 c0 223 -4 345 -10 345 -6 0 -10 -122 -10 -345 0 -322 -1 -345 -17 -345 -78 -3 -261 -3 -635 -2 l-438 2 0 400 0 400 45 0 45 0 0 -344 c0 -219 4 -347 10 -351 7 -4 10 113 10 344 l0 351 202 0 c193 0 203 1 225 22 19 18 23 32 23 80 0 32 4 58 10 58 6 0 10 -27 10 -62z m-402 24 c6 -18 -15 -14 -22 4 -4 10 -1 14 6 12 6 -2 14 -10 16 -16z m243 -25 c-13 -13 -26 -3 -16 12 3 6 11 8 17 5 6 -4 6 -10 -1 -17z m-203 -16 c3 -8 -1 -12 -9 -9 -7 2 -15 10 -17 17 -3 8 1 12 9 9 7 -2 15 -10 17 -17z m166 -10 c3 -5 -1 -11 -9 -15 -15 -6 -29 7 -18 18 9 9 21 8 27 -3z m-116 -20 c3 -8 -1 -12 -9 -9 -7 2 -15 10 -17 17 -3 8 1 12 9 9 7 -2 15 -10 17 -17z m62 -1 c0 -5 -7 -10 -15 -10 -8 0 -15 5 -15 10 0 6 7 10 15 10 8 0 15 -4 15 -10z m448 -878 c6 -18 -15 -14 -22 4 -4 10 -1 14 6 12 6 -2 14 -10 16 -16z m243 -25 c-13 -13 -26 -3 -16 12 3 6 11 8 17 5 6 -4 6 -10 -1 -17z m-203 -16 c3 -8 -1 -12 -9 -9 -7 2 -15 10 -17 17 -3 8 1 12 9 9 7 -2 15 -10 17 -17z m161 -22 c-7 -4 -17 -5 -22 -2 -5 3 -3 9 4 14 7 4 17 5 22 2 5 -3 3 -9 -4 -14z m-111 -8 c3 -8 -1 -12 -9 -9 -7 2 -15 10 -17 17 -3 8 1 12 9 9 7 -2 15 -10 17 -17z m62 -1 c0 -5 -7 -10 -15 -10 -8 0 -15 5 -15 10 0 6 7 10 15 10 8 0 15 -4 15 -10z"/>
<path d="M1149 1971 c-59 -59 -22 -151 61 -151 30 0 44 6 64 31 35 41 34 83 -3 120 -20 20 -39 29 -61 29 -22 0 -41 -9 -61 -29z m101 -21 c24 -24 26 -57 3 -82 -33 -37 -103 -11 -103 39 0 28 33 63 60 63 11 0 29 -9 40 -20z"/>
<path d="M1186 1937 c-36 -26 4 -84 42 -61 23 15 26 38 7 58 -20 19 -26 20 -49 3z"/>
<path d="M1312 1478 c-68 -113 -48 -238 50 -322 95 -81 238 -75 326 15 46 46 63 82 69 143 6 60 -9 123 -38 160 -32 41 -40 31 -13 -17 120 -216 -140 -442 -329 -286 -95 79 -108 197 -33 312 16 23 16 27 3 27 -8 0 -24 -15 -35 -32z"/>
<path d="M1495 1480 c-3 -5 -5 -10 -3 -11 36 -8 48 -7 48 6 0 17 -35 21 -45 5z"/>
<path d="M1497 1434 c-10 -11 3 -24 24 -24 10 0 19 7 19 15 0 15 -31 21 -43 9z"/>
</g>
<g id="layer109" fill="#a2e7f2" stroke="none">
<path d="M310 1510 l0 -1200 1200 0 1200 0 0 1200 0 1200 -1200 0 -1200 0 0 -1200z m1488 591 c2 -77 -1 -107 -10 -113 -7 -4 -88 -8 -180 -8 l-168 0 0 115 0 115 178 -2 177 -3 3 -104z m-590 -43 c-6 -18 -28 -21 -28 -4 0 9 7 16 16 16 9 0 14 -5 12 -12z m62 -9 c0 -5 -7 -9 -15 -9 -8 0 -15 7 -15 15 0 9 6 12 15 9 8 -4 15 -10 15 -15z m-120 -19 c-9 -6 -19 -5 -25 1 -6 6 -5 13 5 19 9 6 19 5 25 -1 6 -6 5 -13 -5 -19z m168 -9 c3 -8 -1 -12 -9 -9 -7 2 -15 10 -17 17 -3 8 1 12 9 9 7 -2 15 -10 17 -17z m-208 -10 c0 -12 -20 -25 -27 -18 -7 7 6 27 18 27 5 0 9 -4 9 -9z m176 -25 c29 -29 34 -41 34 -79 0 -55 -27 -92 -79 -108 -75 -22 -144 32 -143 114 1 35 7 47 36 75 51 46 105 45 152 -2z m68 -2 c9 -22 8 -24 -9 -24 -8 0 -15 9 -15 20 0 24 15 27 24 4z m646 -16 c0 -5 -32 -8 -71 -8 -38 0 -68 3 -66 8 3 4 35 7 71 7 36 0 66 -3 66 -7z m-920 -12 c0 -8 -4 -17 -9 -21 -12 -7 -24 12 -16 25 9 15 25 12 25 -4z m290 -36 c0 -11 -4 -20 -10 -20 -5 0 -10 9 -10 20 0 11 5 20 10 20 6 0 10 -9 10 -20z m730 0 c10 -6 -29 -10 -113 -10 -71 0 -126 4 -123 9 7 11 218 12 236 1z m-1030 -25 c0 -8 -4 -15 -10 -15 -5 0 -10 7 -10 15 0 8 5 15 10 15 6 0 10 -7 10 -15z m300 -19 c0 -15 -14 -35 -21 -30 -15 9 -10 34 6 34 8 0 15 -2 15 -4z m740 -7 c0 -5 -57 -9 -127 -8 -71 1 -117 4 -103 7 37 10 230 11 230 1z m-610 -56 c0 -44 -5 -62 -22 -80 l-21 -23 141 0 142 0 0 80 c0 64 3 80 15 80 12 0 15 -16 15 -80 l0 -80 170 0 170 0 0 -400 0 -400 -45 0 -45 0 0 345 c0 223 -4 345 -10 345 -6 0 -10 -122 -10 -345 0 -338 0 -345 -20 -345 -11 0 -20 -5 -20 -11 0 -8 -5 -8 -15 1 -10 9 -33 10 -73 6 -64 -7 -57 -7 -134 0 -55 6 -56 5 -51 -16 4 -17 2 -21 -8 -18 -8 3 -13 13 -13 22 2 15 -32 16 -377 16 l-379 0 0 400 0 400 45 0 45 0 0 -344 c0 -219 4 -347 10 -351 7 -4 10 113 10 344 l0 351 202 0 c193 0 203 1 225 22 19 18 23 32 23 80 0 45 3 58 15 58 12 0 15 -13 15 -57z m-410 21 c0 -16 -16 -19 -25 -4 -8 13 4 32 16 25 5 -4 9 -13 9 -21z m250 -18 c0 -8 -4 -17 -9 -21 -12 -7 -24 12 -16 25 9 15 25 12 25 -4z m755 -6 c13 -5 -26 -9 -110 -9 -77 0 -124 3 -116 8 18 11 201 12 226 1z m-970 -18 c0 -18 -20 -15 -23 4 -3 10 1 15 10 12 7 -3 13 -10 13 -16z m170 -12 c3 -6 -1 -13 -10 -16 -19 -8 -30 0 -20 15 8 14 22 14 30 1z m-115 -15 c0 -8 -7 -15 -15 -15 -8 0 -15 7 -15 15 0 8 7 15 15 15 8 0 15 -7 15 -15z m60 -5 c0 -5 -7 -10 -15 -10 -8 0 -15 5 -15 10 0 6 7 10 15 10 8 0 15 -4 15 -10z m700 -894 c0 -8 -4 -17 -9 -21 -12 -7 -24 12 -16 25 9 15 25 12 25 -4z m-212 -24 c2 -7 -3 -12 -12 -12 -9 0 -16 7 -16 16 0 17 22 14 28 -4z m172 -12 c0 -12 -28 -25 -36 -17 -9 9 6 27 22 27 8 0 14 -5 14 -10z m-122 -18 c2 -7 -3 -12 -12 -12 -9 0 -16 7 -16 16 0 17 22 14 28 -4z m62 -1 c0 -5 -7 -11 -15 -15 -9 -3 -15 0 -15 9 0 8 7 15 15 15 8 0 15 -4 15 -9z"/>
<path d="M1312 1478 c-68 -113 -48 -238 50 -322 95 -81 238 -75 326 15 55 55 67 86 67 169 0 80 -19 130 -54 150 -18 9 -17 5 5 -33 120 -216 -140 -442 -329 -286 -95 79 -108 197 -33 312 16 23 16 27 3 27 -8 0 -24 -15 -35 -32z"/>
<path d="M1500 1477 c0 -7 9 -13 20 -14 11 -1 20 4 20 13 0 8 -9 14 -20 14 -11 0 -20 -6 -20 -13z"/>
<path d="M1351 1443 c-34 -53 -38 -127 -9 -182 34 -66 86 -103 152 -109 68 -5 116 10 157 51 40 40 59 85 59 137 0 58 -40 148 -60 135 -4 -3 4 -26 17 -52 56 -109 -11 -237 -131 -250 -145 -17 -240 135 -164 263 26 45 8 50 -21 7z"/>
<path d="M1434 1460 c-41 -26 -69 -88 -61 -136 13 -81 72 -127 155 -121 45 3 59 9 89 39 64 64 56 166 -17 218 -45 32 -49 16 -7 -25 58 -56 61 -128 7 -180 -61 -58 -164 -36 -197 42 -20 48 -5 101 38 137 39 33 34 52 -7 26z"/>
<path d="M1500 1425 c0 -8 9 -15 20 -15 11 0 20 7 20 15 0 8 -9 15 -20 15 -11 0 -20 -7 -20 -15z"/>
<path d="M1441 1395 c-65 -95 58 -197 140 -116 17 18 29 40 29 56 0 30 -26 85 -40 85 -14 0 -12 -13 5 -36 20 -27 18 -57 -6 -88 -53 -67 -161 9 -114 81 26 40 13 58 -14 18z"/>
</g>
<g id="layer110" fill="#fdfefe" stroke="none">
<path d="M310 1510 l0 -1200 1200 0 1200 0 0 1200 0 1200 -1200 0 -1200 0 0 -1200z m1488 591 c2 -77 -1 -107 -10 -113 -7 -4 -88 -8 -180 -8 l-168 0 0 115 0 115 178 -2 177 -3 3 -104z m-590 -43 c-6 -18 -28 -21 -28 -4 0 9 7 16 16 16 9 0 14 -5 12 -12z m62 -9 c0 -5 -7 -9 -15 -9 -8 0 -15 7 -15 15 0 9 6 12 15 9 8 -4 15 -10 15 -15z m-120 -19 c-9 -6 -19 -5 -25 1 -6 6 -5 13 5 19 9 6 19 5 25 -1 6 -6 5 -13 -5 -19z m168 -9 c3 -8 -1 -12 -9 -9 -7 2 -15 10 -17 17 -3 8 1 12 9 9 7 -2 15 -10 17 -17z m-208 -10 c0 -12 -20 -25 -27 -18 -7 7 6 27 18 27 5 0 9 -4 9 -9z m176 -25 c29 -29 34 -41 34 -79 0 -55 -27 -92 -79 -108 -75 -22 -144 32 -143 114 1 35 7 47 36 75 51 46 105 45 152 -2z m68 -2 c9 -22 8 -24 -9 -24 -8 0 -15 9 -15 20 0 24 15 27 24 4z m646 -16 c0 -5 -32 -8 -71 -8 -38 0 -68 3 -66 8 3 4 35 7 71 7 36 0 66 -3 66 -7z m-920 -12 c0 -8 -4 -17 -9 -21 -12 -7 -24 12 -16 25 9 15 25 12 25 -4z m290 -36 c0 -11 -4 -20 -10 -20 -5 0 -10 9 -10 20 0 11 5 20 10 20 6 0 10 -9 10 -20z m730 0 c10 -6 -29 -10 -113 -10 -71 0 -126 4 -123 9 7 11 218 12 236 1z m-1030 -25 c0 -8 -4 -15 -10 -15 -5 0 -10 7 -10 15 0 8 5 15 10 15 6 0 10 -7 10 -15z m300 -19 c0 -15 -14 -35 -21 -30 -15 9 -10 34 6 34 8 0 15 -2 15 -4z m740 -7 c0 -5 -57 -9 -127 -8 -71 1 -117 4 -103 7 37 10 230 11 230 1z m-610 -56 c0 -44 -5 -62 -22 -80 l-21 -23 141 0 142 0 0 80 c0 64 3 80 15 80 12 0 15 -16 15 -80 l0 -80 170 0 170 0 0 -400 0 -400 -45 0 -45 0 0 345 c0 223 -4 345 -10 345 -6 0 -10 -122 -10 -345 0 -338 0 -345 -20 -345 -11 0 -20 -5 -20 -11 0 -8 -4 -8 -14 0 -9 8 -35 10 -72 6 -66 -6 -61 -6 -131 1 -49 5 -53 4 -53 -15 0 -26 -20 -28 -27 -2 -4 16 -13 19 -61 18 -32 -1 -200 -1 -374 1 l-318 2 0 400 0 400 45 0 45 0 0 -345 c0 -223 4 -345 10 -345 6 0 10 122 10 345 l0 345 202 0 c193 0 203 1 225 22 19 18 23 32 23 80 0 45 3 58 15 58 12 0 15 -13 15 -57z m-410 21 c0 -16 -16 -19 -25 -4 -8 13 4 32 16 25 5 -4 9 -13 9 -21z m250 -18 c0 -8 -4 -17 -9 -21 -12 -7 -24 12 -16 25 9 15 25 12 25 -4z m755 -6 c13 -5 -26 -9 -110 -9 -77 0 -124 3 -116 8 18 11 201 12 226 1z m-970 -18 c0 -18 -20 -15 -23 4 -3 10 1 15 10 12 7 -3 13 -10 13 -16z m170 -12 c3 -6 -1 -13 -10 -16 -19 -8 -30 0 -20 15 8 14 22 14 30 1z m-115 -15 c0 -8 -7 -15 -15 -15 -8 0 -15 7 -15 15 0 8 7 15 15 15 8 0 15 -7 15 -15z m60 -5 c0 -5 -7 -10 -15 -10 -8 0 -15 5 -15 10 0 6 7 10 15 10 8 0 15 -4 15 -10z m700 -894 c0 -8 -4 -17 -9 -21 -12 -7 -24 12 -16 25 9 15 25 12 25 -4z m-212 -24 c2 -7 -3 -12 -12 -12 -9 0 -16 7 -16 16 0 17 22 14 28 -4z m172 -12 c0 -12 -28 -25 -36 -17 -9 9 6 27 22 27 8 0 14 -5 14 -10z m-122 -18 c2 -7 -3 -12 -12 -12 -9 0 -16 7 -16 16 0 17 22 14 28 -4z m62 -1 c0 -5 -7 -11 -15 -15 -9 -3 -15 0 -15 9 0 8 7 15 15 15 8 0 15 -4 15 -9z"/>
<path d="M1167 1984 c-53 -29 -61 -91 -18 -135 35 -35 77 -38 114 -9 53 42 39 127 -24 149 -39 14 -38 14 -72 -5z m85 -31 c23 -21 23 -65 1 -86 -43 -38 -103 -15 -103 40 0 55 62 83 102 46z"/>
<path d="M1176 1924 c-9 -22 11 -54 34 -54 26 0 45 36 29 56 -15 19 -55 18 -63 -2z"/>
<path d="M1327 1492 c-49 -54 -62 -174 -27 -250 27 -60 85 -109 149 -128 201 -60 375 149 280 337 -10 20 -25 39 -33 42 -10 4 -6 -6 9 -30 67 -98 36 -242 -67 -310 -37 -25 -51 -28 -124 -28 -76 0 -85 2 -126 31 -26 19 -54 53 -70 84 -38 71 -37 129 2 206 31 62 33 75 7 46z"/>
<path d="M1354 1443 c-11 -17 -20 -53 -22 -90 -3 -50 0 -69 18 -101 28 -50 66 -78 122 -93 150 -41 287 125 216 261 -13 24 -29 46 -37 48 -8 3 -4 -8 9 -26 32 -43 38 -126 15 -176 -27 -57 -76 -89 -145 -94 -73 -5 -122 17 -158 71 -37 55 -38 150 -4 196 12 17 18 31 13 31 -5 0 -17 -12 -27 -27z"/>
<path d="M1432 1454 c-78 -55 -65 -196 22 -238 73 -35 148 -8 185 67 17 35 22 56 17 82 -7 37 -59 105 -81 105 -7 0 5 -17 26 -39 35 -35 39 -44 39 -89 0 -44 -5 -55 -34 -86 -32 -35 -55 -42 -111 -36 -112 12 -142 158 -48 229 32 24 19 29 -15 5z"/>
<path d="M1446 1401 c-11 -12 -18 -36 -18 -58 0 -29 7 -43 31 -65 17 -15 40 -28 52 -28 50 0 99 49 99 100 0 20 -49 83 -50 64 0 -6 7 -17 15 -24 22 -18 19 -76 -5 -100 -31 -31 -72 -30 -107 3 -27 24 -30 63 -7 95 20 30 13 38 -10 13z"/>
</g>


</svg>