<?xml version="1.0" encoding="iso-8859-1"?>
<!-- Generator: Adobe Illustrator 19.0.0, SVG Export Plug-In . SVG Version: 6.00 Build 0)  -->
<svg version="1.1" id="Layer_1" xmlns="http://www.w3.org/2000/svg" xmlns:xlink="http://www.w3.org/1999/xlink" x="0px" y="0px"
	 viewBox="0 0 512 512" style="enable-background:new 0 0 512 512;" xml:space="preserve">
<g>
	<g>
		<path d="M256,0C114.848,0,0,114.848,0,256s114.848,256,256,256s256-114.848,256-256S397.152,0,256,0z M256,480
			C132.48,480,32,379.52,32,256S132.48,32,256,32s224,100.48,224,224S379.52,480,256,480z"/>
	</g>
</g>
<g>
	<g>
		<path fill="#000000" d="M364.8,230.4l-96-128c-6.032-8.064-19.568-8.064-25.6,0l-96,128c-3.648,4.848-4.224,11.328-1.52,16.752
			S153.936,256,160,256h48v144c0,8.832,7.168,16,16,16h64c8.832,0,16-7.168,16-16V256h48c6.064,0,11.6-3.424,14.32-8.848
			C369.04,241.728,368.448,235.248,364.8,230.4z M288,224c-8.832,0-16,7.168-16,16v144h-32V240c0-8.832-7.168-16-16-16h-32
			l64-85.328L320,224H288z"/>
	</g>
</g>
<g>
</g>
<g>
</g>
<g>
</g>
<g>
</g>
<g>
</g>
<g>
</g>
<g>
</g>
<g>
</g>
<g>
</g>
<g>
</g>
<g>
</g>
<g>
</g>
<g>
</g>
<g>
</g>
<g>
</g>
</svg>
